Coordinates
version=1
nRows=5
nColumns=40
inDegrees=yes

Units are S.I. units (second, meters, Newtons, ...)
Angles are in degrees.

endheader
time	pelvis_tilt	pelvis_list	pelvis_rotation	pelvis_tx	pelvis_ty	pelvis_tz	hip_flexion_r	hip_adduction_r	hip_rotation_r	knee_angle_r	knee_angle_r_beta	ankle_angle_r	subtalar_angle_r	mtp_angle_r	hip_flexion_l	hip_adduction_l	hip_rotation_l	knee_angle_l	knee_angle_l_beta	ankle_angle_l	subtalar_angle_l	mtp_angle_l	lumbar_extension	lumbar_bending	lumbar_rotation	arm_flex_r	arm_add_r	arm_rot_r	elbow_flex_r	pro_sup_r	wrist_flex_r	wrist_dev_r	arm_flex_l	arm_add_l	arm_rot_l	elbow_flex_l	pro_sup_l	wrist_flex_l	wrist_dev_l
     47.47000000	     -4.24722597	     -4.66089251	     -1.27846297	      0.96949046	      0.92358542	      0.49125196	     21.14173795	      2.42039215	    -13.30484622	     19.96289502	     19.96289502	      6.07272575	      0.18017859	     -4.59664685	      9.07414938	    -10.20943564	     -5.58496911	     41.17172926	     41.17172926	     15.65991951	    -18.26055433	      2.96543639	     -9.55242444	      8.45372425	      1.21678663	     -2.69464049	    -12.86455581	     -9.09864955	     28.41455846	     46.45905263	      0.00000000	      0.00000000	     15.22108094	    -14.91356876	    -11.82599555	     83.53181266	     47.64490798	      0.00000000	      0.00000000
     47.48285714	     -4.17885064	     -4.70518503	     -0.76889926	      0.96955030	      0.92455714	      0.49244146	     20.38576631	      2.35009992	    -14.21213319	     19.64481938	     19.64481938	      6.53467026	      1.14215038	     -4.83510280	     11.09409487	    -10.51956918	     -4.86941820	     44.96246134	     44.96246134	     16.86162741	    -18.43107916	      9.23871758	     -9.53489602	      8.69385621	      1.64884412	     -1.35683651	    -13.12057053	     -9.00413096	     29.10008163	     46.42064971	      0.00000000	      0.00000000	     15.12505572	    -14.26071134	    -10.08506683	     80.53879952	     47.52664782	      0.00000000	      0.00000000
     47.49571429	     -4.07347421	     -4.85890032	     -0.27736989	      0.96958283	      0.92544070	      0.49373746	     19.56326158	      2.44302592	    -15.08290730	     19.26871634	     19.26871634	      6.92250415	      1.99612729	     -5.04567178	     12.91695126	    -11.08023143	     -4.51555965	     48.11075404	     48.11075404	     16.94880386	    -18.72234778	     12.24333671	     -9.58955734	      9.01111904	      1.90224532	      0.24302694	    -13.38764706	     -8.95289410	     29.64158504	     46.39621213	      0.00000000	      0.00000000	     14.62289168	    -13.60762644	     -8.95576890	     78.26082468	     47.44616938	      0.00000000	      0.00000000
     47.50857143	     -3.95955977	     -5.10343031	      0.18393899	      0.96956047	      0.92624242	      0.49517290	     18.70669726	      2.72680384	    -15.72399090	     18.80051135	     18.80051135	      7.22721310	      2.46681759	     -5.11091788	     14.60676399	    -11.86131387	     -4.42266210	     50.67407625	     50.67407625	     16.35459562	    -18.96932201	     12.79408387	     -9.67831983	      9.37376587	      1.89041857	      2.03456562	    -13.61815892	     -8.95875690	     30.30686225	     46.38231478	      0.00000000	      0.00000000	     13.56223256	    -13.08541620	     -8.29700094	     76.82879966	     47.37590577	      0.00000000	      0.00000000
     47.52142857	     -3.81607120	     -5.18453303	      0.58898671	      0.96943244	      0.92720212	      0.49645900	     17.82810928	      2.81340430	    -16.45614974	     18.35039022	     18.35039022	      7.51538042	      3.31080678	     -5.23284556	     16.27350121	    -12.36566059	     -4.28245579	     52.92315420	     52.92315420	     17.14939248	    -19.08396143	     16.82033195	     -9.74251586	      9.58149434	      2.40062759	      3.78865823	    -13.95827607	     -8.75265839	     30.48018001	     46.36181098	      0.00000000	      0.00000000	     13.40955426	    -12.51414195	     -6.56802612	     73.33306928	     47.23481814	      0.00000000	      0.00000000
